<?xml version="1.0" encoding="utf-8"?>
<!-- Generator: Adobe Illustrator 24.0.2, SVG Export Plug-In . SVG Version: 6.00 Build 0)  -->
<svg version="1.1" id="Layer_1" xmlns="http://www.w3.org/2000/svg" xmlns:xlink="http://www.w3.org/1999/xlink" x="0px" y="0px"
	 viewBox="0 0 512 512" style="enable-background:new 0 0 512 512;" xml:space="preserve">
<style type="text/css">
	.st0{fill:#999999;}
</style>
<g>
	<path class="st0" d="M407,10.9c17.9,5.3,34.4,14,49.6,26.1c15.2,12.1,27.9,27.8,38,47.1c10.1,19.3,15.2,43,15.2,71v202.7
		c0,15.5-2.7,32-8,49.6c-5.3,17.6-14,34-26.1,49.2c-12.1,15.2-27.8,27.9-47.1,38c-19.3,10.1-43,15.2-71,15.2H155
		c-15.5,0-32-2.6-49.6-8c-17.6-5.3-34-14-49.2-26.1c-15.2-12.1-27.9-27.8-38-47.1C8,409.4,3,385.8,3,357.8V155c0-15,2.6-31.4,8-49.2
		c5.3-17.9,14-34.4,26.1-49.6C49,41,64.7,28.3,84,18.2C103.3,8,127,3,155,3h202.7C372.7,3,389.1,5.6,407,10.9z M408.4,357.8V155
		c0-10.1-1.6-18.5-4.7-25c-3.1-6.5-7.2-11.7-12.3-15.6c-5.1-3.9-10.6-6.5-16.7-8c-6-1.4-11.7-2.2-17-2.2H155
		c-10.1,0-18.5,1.6-25,4.7c-6.5,3.1-11.7,7.2-15.6,12.3c-3.9,5.1-6.5,10.6-8,16.7c-1.4,6-2.2,11.7-2.2,17v202.7
		c0,10.1,1.6,18.5,4.7,25c3.1,6.5,7.1,11.7,11.9,15.6c4.8,3.9,10.2,6.5,16.3,8c6,1.4,11.9,2.2,17.7,2.2h50.7v-50.7
		c0-14.5,4.8-26.5,14.5-36.2c9.7-9.7,21.7-14.5,36.2-14.5s26.5,4.8,36.2,14.5c9.7,9.7,14.5,21.7,14.5,36.2v50.7h50.7
		c10.1,0,18.5-1.6,25-4.7c6.5-3.1,11.7-7.2,15.6-12.3c3.9-5.1,6.5-10.6,8-16.7C407.7,368.7,408.4,363.1,408.4,357.8z"/>
</g>
<g>
</g>
<g>
</g>
<g>
</g>
<g>
</g>
<g>
</g>
</svg>
