<svg version="1.1" xmlns="http://www.w3.org/2000/svg" xmlns:xlink="http://www.w3.org/1999/xlink" x="0px" y="0px"
	 viewBox="0 0 1000 1000" style="enable-background:new 0 0 1000 1000;" xml:space="preserve">
<g>
	<path fill="#EAEAEA" d="M575.9,540c0,62.3-0.1,124.6,0.1,186.9c0,11.2-2.2,20.7-13.2,25.9c-12.2,5.7-24,4.7-34.6-3.9
		c-24.5-19.7-48.9-39.5-73.3-59.2c-0.3-0.2-0.5-0.4-0.7-0.6c-36.1-27.8-30-24.2-30.3-65.3c-0.7-116.2-0.2-232.3-0.3-348.5
		c0-12.9,2.9-23.9,15.4-30c12.7-6.2,24.1-2.5,34.3,5.6c29.7,23.5,59.2,47.3,88.8,70.9c9.5,7.6,14.1,16.8,14,29.4
		C575.7,414.1,575.9,477,575.9,540z"/>
	<path fill="#B600FD" d="M247.5,457.8c0-61.3,0.9-122.7-0.4-184c-0.6-27.9,25.8-38.3,45.7-25.3c18.2,11.9,34,27,51.1,40.3
		c14.1,10.9,27.9,22.2,41.7,33.5c9.3,7.6,14.3,17.5,14.3,29.6c-0.1,44.1-0.1,88.3-0.2,132.4c-0.3,70.1-0.6,140.2-0.9,210.3
		c-0.1,12.3,0.5,24.7-0.5,36.9c-2.1,25.8-29.3,29.9-44.4,18.1c-23.5-18.4-46.7-37.1-70.1-55.6c-4.8-3.8-9.7-7.6-14.7-11.2
		c-15.2-10.7-22.2-24.7-22-43.8c0.6-60.4,0.2-120.7,0.2-181.1C247.4,457.8,247.4,457.8,247.5,457.8z"/>
	<path fill="#00EF8A" d="M598.7,462.9c0-62,0.1-123.9-0.1-185.9c0-12.7,1.8-24.6,14.1-30.9c13-6.6,25.2-2.6,36.1,6.1
		c29.3,23.5,58.7,46.9,88,70.5c9.1,7.3,13.4,16.7,13.4,28.8c0,124.3,0.1,248.5,0.4,372.8c0,12.3-2.7,22.6-14.6,28.2
		c-12.4,5.9-23.8,3.6-34.4-4.9c-28-22.6-55.9-45.3-84.3-67.3c-12.2-9.5-17.7-20.3-17.7-36.4C599.7,583.6,598.2,523.2,598.7,462.9z"
		/>
</g>
</svg>
